<svg width="138" height="28" viewBox="0 0 138 28" fill="none" xmlns="http://www.w3.org/2000/svg">
<path d="M13.7012 6.99609H1.79688V21H4.80469V9.70117H10.7031V21H13.7012V6.99609ZM18.9062 16.1074C18.9062 15.375 19.1406 14.7598 19.6191 14.252C20.0879 13.7539 20.6543 13.5 21.3086 13.5C21.9531 13.5 22.5195 13.7539 22.998 14.252C23.4668 14.7598 23.7109 15.375 23.7109 16.1074C23.7109 16.8398 23.4668 17.4551 22.998 17.9531C22.5195 18.4512 21.9531 18.6953 21.3086 18.6953C20.6543 18.6953 20.0879 18.4512 19.6191 17.9531C19.1406 17.4551 18.9062 16.8398 18.9062 16.1074ZM26.5039 16.0977C26.5039 14.7402 25.9863 13.5488 24.9512 12.5332C23.916 11.5176 22.7051 11.0098 21.3086 11.0098C19.9023 11.0098 18.6914 11.5176 17.6562 12.5332C16.6211 13.5488 16.1035 14.7402 16.1035 16.0977C16.1035 17.4648 16.6211 18.6562 17.6562 19.6719C18.6914 20.6875 19.9023 21.1953 21.3086 21.1953C22.7051 21.1953 23.916 20.6875 24.9512 19.6719C25.9863 18.6562 26.5039 17.4648 26.5039 16.0977ZM27.207 18.5977V23.3047H29.9023V21H35.5078V23.3047H38.2031V18.5977H36.9043V11.1953H29.4043V13.9004C29.4043 14.5156 29.3457 15.1016 29.2285 15.6582C29.1113 16.2051 28.9844 16.6543 28.8477 16.9863C28.7109 17.3184 28.5449 17.6309 28.3594 17.9141C28.1738 18.1875 28.0469 18.3633 27.9688 18.4414C27.8906 18.5098 27.8418 18.5684 27.8027 18.6074L27.207 18.5977ZM31.9043 13.6074H34.209V18.6074H30.6055L30.9473 18.0898C31.1621 17.7383 31.3672 17.2012 31.582 16.4688C31.7969 15.7363 31.9043 14.9844 31.9043 14.2129V13.6074ZM45.6055 21.1953C46.875 21.1953 47.9688 20.707 48.9062 19.7207C49.8438 18.7344 50.3125 17.5234 50.3125 16.0977C50.3125 14.6719 49.8438 13.4707 48.9062 12.4844C47.9688 11.498 46.875 11 45.6055 11C45.2441 11 44.9023 11.0586 44.5703 11.1562C44.2383 11.2539 43.9648 11.3711 43.7598 11.498C43.5449 11.625 43.3496 11.7715 43.1738 11.9277C42.998 12.084 42.8809 12.1914 42.8223 12.25C42.7637 12.3086 42.7246 12.3574 42.7051 12.3965V11.1953H40.0098V25.1992H42.7051V19.7988L43.0078 20.1602C43.2031 20.3945 43.5449 20.6191 44.0332 20.8535C44.5215 21.0879 45.0391 21.1953 45.6055 21.1953ZM45.1074 13.4023C45.7715 13.4023 46.3379 13.6562 46.8066 14.1641C47.2754 14.6719 47.5098 15.3164 47.5098 16.1074C47.5098 16.8887 47.2754 17.543 46.8066 18.0508C46.3379 18.5586 45.7715 18.8125 45.1074 18.8125C44.4434 18.8125 43.877 18.5586 43.4082 18.0508C42.9395 17.543 42.7051 16.8887 42.7051 16.1074C42.7051 15.3164 42.9395 14.6719 43.4082 14.1641C43.877 13.6562 44.4434 13.4023 45.1074 13.4023ZM54.5117 16.1074C54.5117 15.375 54.7461 14.7598 55.2246 14.252C55.6934 13.7539 56.2598 13.5 56.9141 13.5C57.5586 13.5 58.125 13.7539 58.6035 14.252C59.0723 14.7598 59.3164 15.375 59.3164 16.1074C59.3164 16.8398 59.0723 17.4551 58.6035 17.9531C58.125 18.4512 57.5586 18.6953 56.9141 18.6953C56.2598 18.6953 55.6934 18.4512 55.2246 17.9531C54.7461 17.4551 54.5117 16.8398 54.5117 16.1074ZM62.1094 16.0977C62.1094 14.7402 61.5918 13.5488 60.5566 12.5332C59.5215 11.5176 58.3105 11.0098 56.9141 11.0098C55.5078 11.0098 54.2969 11.5176 53.2617 12.5332C52.2266 13.5488 51.709 14.7402 51.709 16.0977C51.709 17.4648 52.2266 18.6562 53.2617 19.6719C54.2969 20.6875 55.5078 21.1953 56.9141 21.1953C58.3105 21.1953 59.5215 20.6875 60.5566 19.6719C61.5918 18.6562 62.1094 17.4648 62.1094 16.0977ZM74.0137 16.3027C74.0137 14.9746 73.5449 13.8223 72.6172 12.8555C71.6895 11.8887 70.625 11.4004 69.4141 11.4004C69.0723 11.4004 68.7402 11.459 68.418 11.5566C68.0859 11.6543 67.8223 11.7715 67.6074 11.8984C67.3926 12.0254 67.1973 12.1719 67.0117 12.3281C66.8164 12.4844 66.6992 12.5918 66.6406 12.6504C66.582 12.709 66.5332 12.7578 66.5137 12.7969C66.6504 11.9961 66.9922 11.332 67.5293 10.7949C68.0566 10.2578 68.75 9.89648 69.6094 9.70117C70.5469 9.48633 71.3574 9.26172 72.0215 9.00781C72.6855 8.76367 73.0859 8.59766 73.2227 8.50977C73.3594 8.43164 73.4473 8.36328 73.5059 8.30469L72.3145 6.30273L71.9727 6.47852C71.7383 6.5957 71.3379 6.73242 70.752 6.9082C70.166 7.08398 69.5117 7.25 68.8086 7.39648C67.207 7.72852 65.9668 8.4707 65.1074 9.63281C64.2383 10.8047 63.8086 12.5234 63.8086 14.7988C63.8086 16.8398 64.2871 18.4121 65.2539 19.5254C66.2207 20.6387 67.5098 21.1953 69.1113 21.1953C70.5371 21.1953 71.709 20.7266 72.627 19.7793C73.5449 18.8418 74.0137 17.6797 74.0137 16.3027ZM66.8066 16.3027C66.8066 15.5703 67.0215 14.9746 67.4707 14.5059C67.9102 14.0371 68.457 13.8027 69.1113 13.8027C69.7168 13.8027 70.2344 14.0371 70.6641 14.5059C71.0938 14.9746 71.3086 15.5703 71.3086 16.3027C71.3086 17.0352 71.0938 17.6309 70.6641 18.0996C70.2344 18.5684 69.7168 18.8027 69.1113 18.8027C68.457 18.8027 67.9102 18.5684 67.4707 18.0996C67.0215 17.6309 66.8066 17.0352 66.8066 16.3027ZM78.916 17.2988H82.7148V21H85.4199V11.1953H82.7148V14.8965H78.916V11.1953H76.2207V21H78.916V17.2988ZM97.3145 16.9961L97.4121 15.9023C97.4121 14.5059 96.9434 13.3438 96.0156 12.4062C95.0781 11.4688 93.916 11 92.5195 11C91.1133 11 89.9121 11.5078 88.916 12.5039C87.9102 13.5 87.4121 14.7012 87.4121 16.0977C87.4121 17.5039 87.9199 18.7051 88.9355 19.7012C89.9512 20.6973 91.1719 21.1953 92.6172 21.1953C93.125 21.1953 93.6133 21.1367 94.0918 21.0195C94.5703 20.9023 94.9609 20.7754 95.2637 20.6191C95.5566 20.4629 95.8398 20.2871 96.1133 20.0918C96.377 19.8965 96.5527 19.7598 96.6309 19.6816L96.8164 19.4961L95.4199 17.6992L95.1367 18.002C94.9609 18.207 94.6484 18.4121 94.2188 18.6074C93.7891 18.8027 93.3203 18.9004 92.8125 18.9004C92.1094 18.9004 91.5234 18.7246 91.0645 18.3535C90.5957 17.9824 90.3125 17.5332 90.2148 16.9961H97.3145ZM92.5195 13.3047C93.0859 13.3047 93.5742 13.4805 93.9648 13.8125C94.3555 14.1543 94.6094 14.584 94.7168 15.1016H90.2148C90.3711 14.5742 90.6543 14.1348 91.0547 13.8027C91.4551 13.4707 91.9434 13.3047 92.5195 13.3047ZM108.721 16.9961L108.818 15.9023C108.818 14.5059 108.35 13.3438 107.422 12.4062C106.484 11.4688 105.322 11 103.926 11C102.52 11 101.318 11.5078 100.322 12.5039C99.3164 13.5 98.8184 14.7012 98.8184 16.0977C98.8184 17.5039 99.3262 18.7051 100.342 19.7012C101.357 20.6973 102.578 21.1953 104.023 21.1953C104.531 21.1953 105.02 21.1367 105.498 21.0195C105.977 20.9023 106.367 20.7754 106.67 20.6191C106.963 20.4629 107.246 20.2871 107.52 20.0918C107.783 19.8965 107.959 19.7598 108.037 19.6816L108.223 19.4961L106.826 17.6992L106.543 18.002C106.367 18.207 106.055 18.4121 105.625 18.6074C105.195 18.8027 104.727 18.9004 104.219 18.9004C103.516 18.9004 102.93 18.7246 102.471 18.3535C102.002 17.9824 101.719 17.5332 101.621 16.9961H108.721ZM103.926 13.3047C104.492 13.3047 104.98 13.4805 105.371 13.8125C105.762 14.1543 106.016 14.584 106.123 15.1016H101.621C101.777 14.5742 102.061 14.1348 102.461 13.8027C102.861 13.4707 103.35 13.3047 103.926 13.3047Z" fill="#0C6BC5"/>
<g clip-path="url(#clip0_386_4874)">
<path d="M133 14H119" stroke="#0C6BC5" stroke-width="2" stroke-linecap="round" stroke-linejoin="round"/>
<path d="M133 14L127 20" stroke="#0C6BC5" stroke-width="2" stroke-linecap="round" stroke-linejoin="round"/>
<path d="M133 14L127 8" stroke="#0C6BC5" stroke-width="2" stroke-linecap="round" stroke-linejoin="round"/>
</g>
<defs>
<clipPath id="clip0_386_4874">
<rect width="24" height="24" fill="white" transform="matrix(-1 0 0 1 138 2)"/>
</clipPath>
</defs>
</svg>
